<svg width="198" height="45" viewBox="0 0 198 45" fill="none" xmlns="http://www.w3.org/2000/svg">
<path d="M3 6.75H12.72V10.14H6.9V13.68H12.72V17.19H6.9V24H3V6.75ZM23.79 15.15V8.82L20.28 6.75H14.07V10.14H19.89V13.68H14.07V17.19H20.28L23.79 15.15ZM26.7457 8.82L30.1657 6.75H36.3457V10.14H30.5257V13.68H36.3457V17.1H30.5257V24H26.7457V8.82ZM47.4157 8.82L43.8757 6.75H37.6957V10.14H43.6357V13.68H37.6957V17.1H43.6357V24H47.4157V8.82ZM51.9047 8.82L55.3247 6.75H61.5047V10.29H55.5647V13.68H61.5047V17.19H55.3247L51.9047 15.15V8.82ZM72.5747 15.75L69.0347 13.68H62.8547V17.19H68.7947V20.61H62.9747V24H69.0347L72.5747 21.96V15.75ZM55.6847 18.54V20.61H61.5047V24H55.4147L51.9047 21.96V18.54H55.6847ZM72.5747 12.33V8.82L69.0347 6.75H62.8547V10.29H68.7947V12.33H72.5747ZM76.7777 8.82L80.1977 6.75H86.3777V10.29H80.4377V13.68H86.3777V17.19H80.1977L76.7777 15.15V8.82ZM97.4477 15.75L93.9077 13.68H87.7277V17.19H93.6677V20.61H87.8477V24H93.9077L97.4477 21.96V15.75ZM80.5577 18.54V20.61H86.3777V24H80.2877L76.7777 21.96V18.54H80.5577ZM97.4477 12.33V8.82L93.9077 6.75H87.7277V10.29H93.6677V12.33H97.4477ZM103.661 24L100.151 7.86L103.661 6.75L106.361 19.86L109.871 15.75V20.85L107.081 24H103.661ZM117.431 24H114.011L111.221 20.85V15.75L114.611 19.86L117.431 6.75L120.821 7.86L117.431 24ZM123.806 6.75H127.586V24H123.806V6.75ZM151.56 10.14H142.92V24H138.78V10.14H130.89V6.75H151.56V10.14ZM174.031 10.14H165.391V24H161.251V10.14H153.361V6.75H174.031V10.14ZM187.862 16.11V24H184.472V16.11L175.832 7.86L179.252 6.75L186.152 13.32L193.112 6.75L196.502 7.86L187.862 16.11Z" fill="url(#paint0_linear_4_3)"/>
<path d="M102.624 42C102.512 42 102.42 41.964 102.348 41.892C102.284 41.82 102.252 41.736 102.252 41.64V33.996H102.996V41.64C102.996 41.736 102.96 41.82 102.888 41.892C102.816 41.964 102.728 42 102.624 42ZM99.768 34.284C99.672 34.284 99.588 34.252 99.516 34.188C99.444 34.124 99.408 34.04 99.408 33.936C99.408 33.84 99.444 33.76 99.516 33.696C99.588 33.632 99.672 33.6 99.768 33.6H105.48C105.576 33.6 105.66 33.632 105.732 33.696C105.804 33.76 105.84 33.844 105.84 33.948C105.84 34.052 105.804 34.136 105.732 34.2C105.66 34.256 105.576 34.284 105.48 34.284H99.768ZM107.742 33.6H112.146C112.242 33.6 112.326 33.636 112.398 33.708C112.47 33.772 112.506 33.856 112.506 33.96C112.506 34.064 112.47 34.148 112.398 34.212C112.326 34.276 112.242 34.308 112.146 34.308H108.018L108.138 34.104V37.476L108.006 37.32H111.606C111.702 37.32 111.786 37.356 111.858 37.428C111.93 37.5 111.966 37.584 111.966 37.68C111.966 37.784 111.93 37.868 111.858 37.932C111.786 37.996 111.702 38.028 111.606 38.028H108.03L108.138 37.908V41.364L108.078 41.292H112.146C112.242 41.292 112.326 41.328 112.398 41.4C112.47 41.472 112.506 41.556 112.506 41.652C112.506 41.756 112.47 41.84 112.398 41.904C112.326 41.968 112.242 42 112.146 42H107.742C107.646 42 107.562 41.964 107.49 41.892C107.418 41.82 107.382 41.736 107.382 41.64V33.96C107.382 33.864 107.418 33.78 107.49 33.708C107.562 33.636 107.646 33.6 107.742 33.6ZM120.334 34.224C120.43 34.288 120.486 34.372 120.502 34.476C120.518 34.572 120.494 34.668 120.43 34.764C120.374 34.836 120.302 34.876 120.214 34.884C120.126 34.892 120.042 34.876 119.962 34.836C119.658 34.636 119.33 34.48 118.978 34.368C118.634 34.256 118.262 34.2 117.862 34.2C117.374 34.2 116.918 34.288 116.494 34.464C116.078 34.632 115.714 34.88 115.402 35.208C115.09 35.528 114.846 35.908 114.67 36.348C114.502 36.788 114.418 37.272 114.418 37.8C114.418 38.344 114.506 38.84 114.682 39.288C114.858 39.728 115.102 40.108 115.414 40.428C115.734 40.748 116.102 40.992 116.518 41.16C116.934 41.328 117.382 41.412 117.862 41.412C118.254 41.412 118.622 41.356 118.966 41.244C119.318 41.132 119.646 40.98 119.95 40.788C120.03 40.74 120.114 40.724 120.202 40.74C120.298 40.748 120.374 40.792 120.43 40.872C120.502 40.96 120.526 41.056 120.502 41.16C120.486 41.256 120.434 41.332 120.346 41.388C120.146 41.516 119.91 41.636 119.638 41.748C119.366 41.86 119.078 41.948 118.774 42.012C118.47 42.084 118.166 42.12 117.862 42.12C117.286 42.12 116.746 42.016 116.242 41.808C115.738 41.6 115.29 41.308 114.898 40.932C114.506 40.548 114.198 40.092 113.974 39.564C113.758 39.036 113.65 38.448 113.65 37.8C113.65 37.176 113.758 36.604 113.974 36.084C114.19 35.556 114.49 35.1 114.874 34.716C115.258 34.332 115.706 34.032 116.218 33.816C116.73 33.6 117.278 33.492 117.862 33.492C118.318 33.492 118.758 33.556 119.182 33.684C119.606 33.812 119.99 33.992 120.334 34.224ZM122.426 33.6C122.522 33.6 122.606 33.636 122.678 33.708C122.758 33.78 122.798 33.868 122.798 33.972V41.628C122.79 41.732 122.746 41.82 122.666 41.892C122.594 41.964 122.51 42 122.414 42C122.302 42 122.21 41.964 122.138 41.892C122.074 41.82 122.042 41.732 122.042 41.628V33.972C122.042 33.868 122.078 33.78 122.15 33.708C122.222 33.636 122.314 33.6 122.426 33.6ZM128.054 33.6C128.166 33.6 128.254 33.636 128.318 33.708C128.39 33.78 128.426 33.868 128.426 33.972V41.628C128.418 41.732 128.378 41.82 128.306 41.892C128.242 41.964 128.154 42 128.042 42C127.938 42 127.85 41.964 127.778 41.892C127.706 41.82 127.67 41.732 127.67 41.628V33.972C127.67 33.868 127.706 33.78 127.778 33.708C127.858 33.636 127.95 33.6 128.054 33.6ZM122.366 37.356H128.066L128.054 38.052H122.318L122.366 37.356ZM136.823 33.6C136.927 33.6 137.007 33.632 137.063 33.696C137.127 33.76 137.159 33.84 137.159 33.936V41.616C137.159 41.736 137.119 41.832 137.039 41.904C136.967 41.968 136.883 42 136.787 42C136.739 42 136.687 41.992 136.631 41.976C136.575 41.952 136.531 41.92 136.499 41.88L131.147 34.668L131.351 34.56V41.676C131.351 41.764 131.319 41.84 131.255 41.904C131.191 41.968 131.111 42 131.015 42C130.911 42 130.827 41.968 130.763 41.904C130.707 41.84 130.679 41.764 130.679 41.676V33.96C130.679 33.84 130.715 33.752 130.787 33.696C130.859 33.632 130.939 33.6 131.027 33.6C131.075 33.6 131.127 33.612 131.183 33.636C131.239 33.652 131.283 33.684 131.315 33.732L136.607 40.86L136.487 41.076V33.936C136.487 33.84 136.519 33.76 136.583 33.696C136.655 33.632 136.735 33.6 136.823 33.6ZM146.897 37.8C146.897 38.432 146.797 39.012 146.597 39.54C146.405 40.06 146.129 40.516 145.769 40.908C145.409 41.292 144.981 41.592 144.485 41.808C143.997 42.016 143.461 42.12 142.877 42.12C142.293 42.12 141.753 42.016 141.257 41.808C140.769 41.592 140.345 41.292 139.985 40.908C139.625 40.516 139.345 40.06 139.145 39.54C138.953 39.012 138.857 38.432 138.857 37.8C138.857 37.168 138.953 36.592 139.145 36.072C139.345 35.544 139.625 35.088 139.985 34.704C140.345 34.312 140.769 34.012 141.257 33.804C141.753 33.588 142.293 33.48 142.877 33.48C143.461 33.48 143.997 33.588 144.485 33.804C144.981 34.012 145.409 34.312 145.769 34.704C146.129 35.088 146.405 35.544 146.597 36.072C146.797 36.592 146.897 37.168 146.897 37.8ZM146.129 37.8C146.129 37.088 145.989 36.464 145.709 35.928C145.437 35.384 145.057 34.96 144.569 34.656C144.081 34.352 143.517 34.2 142.877 34.2C142.245 34.2 141.681 34.352 141.185 34.656C140.697 34.96 140.313 35.384 140.033 35.928C139.761 36.464 139.625 37.088 139.625 37.8C139.625 38.512 139.761 39.14 140.033 39.684C140.313 40.22 140.697 40.64 141.185 40.944C141.681 41.248 142.245 41.4 142.877 41.4C143.517 41.4 144.081 41.248 144.569 40.944C145.057 40.64 145.437 40.22 145.709 39.684C145.989 39.14 146.129 38.512 146.129 37.8ZM153.241 41.292C153.337 41.292 153.421 41.328 153.493 41.4C153.565 41.464 153.601 41.544 153.601 41.64C153.601 41.744 153.565 41.832 153.493 41.904C153.421 41.968 153.337 42 153.241 42H148.957C148.853 42 148.765 41.964 148.693 41.892C148.629 41.82 148.597 41.736 148.597 41.64V33.96C148.597 33.864 148.633 33.78 148.705 33.708C148.777 33.636 148.869 33.6 148.981 33.6C149.077 33.6 149.161 33.636 149.233 33.708C149.313 33.78 149.353 33.864 149.353 33.96V41.496L149.125 41.292H153.241ZM162.354 37.8C162.354 38.432 162.254 39.012 162.054 39.54C161.862 40.06 161.586 40.516 161.226 40.908C160.866 41.292 160.438 41.592 159.942 41.808C159.454 42.016 158.918 42.12 158.334 42.12C157.75 42.12 157.21 42.016 156.714 41.808C156.226 41.592 155.802 41.292 155.442 40.908C155.082 40.516 154.802 40.06 154.602 39.54C154.41 39.012 154.314 38.432 154.314 37.8C154.314 37.168 154.41 36.592 154.602 36.072C154.802 35.544 155.082 35.088 155.442 34.704C155.802 34.312 156.226 34.012 156.714 33.804C157.21 33.588 157.75 33.48 158.334 33.48C158.918 33.48 159.454 33.588 159.942 33.804C160.438 34.012 160.866 34.312 161.226 34.704C161.586 35.088 161.862 35.544 162.054 36.072C162.254 36.592 162.354 37.168 162.354 37.8ZM161.586 37.8C161.586 37.088 161.446 36.464 161.166 35.928C160.894 35.384 160.514 34.96 160.026 34.656C159.538 34.352 158.974 34.2 158.334 34.2C157.702 34.2 157.138 34.352 156.642 34.656C156.154 34.96 155.77 35.384 155.49 35.928C155.218 36.464 155.082 37.088 155.082 37.8C155.082 38.512 155.218 39.14 155.49 39.684C155.77 40.22 156.154 40.64 156.642 40.944C157.138 41.248 157.702 41.4 158.334 41.4C158.974 41.4 159.538 41.248 160.026 40.944C160.514 40.64 160.894 40.22 161.166 39.684C161.446 39.14 161.586 38.512 161.586 37.8ZM167.822 42.12C167.206 42.12 166.634 42.012 166.106 41.796C165.578 41.58 165.118 41.28 164.726 40.896C164.342 40.504 164.042 40.044 163.826 39.516C163.61 38.988 163.502 38.416 163.502 37.8C163.502 37.184 163.61 36.612 163.826 36.084C164.042 35.556 164.342 35.1 164.726 34.716C165.118 34.324 165.578 34.02 166.106 33.804C166.634 33.588 167.206 33.48 167.822 33.48C168.246 33.48 168.654 33.532 169.046 33.636C169.446 33.732 169.802 33.88 170.114 34.08C170.17 34.12 170.21 34.168 170.234 34.224C170.266 34.272 170.282 34.324 170.282 34.38C170.282 34.492 170.246 34.584 170.174 34.656C170.102 34.72 170.026 34.752 169.946 34.752C169.906 34.752 169.866 34.748 169.826 34.74C169.794 34.724 169.762 34.708 169.73 34.692C169.458 34.54 169.162 34.42 168.842 34.332C168.522 34.244 168.182 34.2 167.822 34.2C167.134 34.2 166.522 34.356 165.986 34.668C165.45 34.98 165.03 35.408 164.726 35.952C164.422 36.496 164.27 37.112 164.27 37.8C164.27 38.488 164.422 39.104 164.726 39.648C165.03 40.192 165.45 40.62 165.986 40.932C166.522 41.244 167.134 41.4 167.822 41.4C168.182 41.4 168.542 41.348 168.902 41.244C169.27 41.14 169.586 41 169.85 40.824L169.79 41.076V38.316L169.97 38.484H167.894C167.79 38.484 167.702 38.448 167.63 38.376C167.558 38.304 167.522 38.22 167.522 38.124C167.522 38.012 167.558 37.924 167.63 37.86C167.702 37.796 167.79 37.764 167.894 37.764H170.186C170.29 37.764 170.374 37.8 170.438 37.872C170.51 37.936 170.546 38.02 170.546 38.124V41.016C170.546 41.08 170.53 41.14 170.498 41.196C170.466 41.252 170.422 41.3 170.366 41.34C170.014 41.58 169.618 41.772 169.178 41.916C168.746 42.052 168.294 42.12 167.822 42.12ZM173.154 41.628C173.146 41.732 173.102 41.82 173.022 41.892C172.95 41.964 172.866 42 172.77 42C172.658 42 172.566 41.964 172.494 41.892C172.43 41.82 172.398 41.732 172.398 41.628V33.972C172.398 33.868 172.434 33.78 172.506 33.708C172.578 33.636 172.67 33.6 172.782 33.6C172.878 33.6 172.962 33.636 173.034 33.708C173.114 33.78 173.154 33.868 173.154 33.972V41.628ZM175.758 33.6H180.162C180.258 33.6 180.342 33.636 180.414 33.708C180.486 33.772 180.522 33.856 180.522 33.96C180.522 34.064 180.486 34.148 180.414 34.212C180.342 34.276 180.258 34.308 180.162 34.308H176.034L176.154 34.104V37.476L176.022 37.32H179.622C179.718 37.32 179.802 37.356 179.874 37.428C179.946 37.5 179.982 37.584 179.982 37.68C179.982 37.784 179.946 37.868 179.874 37.932C179.802 37.996 179.718 38.028 179.622 38.028H176.046L176.154 37.908V41.364L176.094 41.292H180.162C180.258 41.292 180.342 41.328 180.414 41.4C180.486 41.472 180.522 41.556 180.522 41.652C180.522 41.756 180.486 41.84 180.414 41.904C180.342 41.968 180.258 42 180.162 42H175.758C175.662 42 175.578 41.964 175.506 41.892C175.434 41.82 175.398 41.736 175.398 41.64V33.96C175.398 33.864 175.434 33.78 175.506 33.708C175.578 33.636 175.662 33.6 175.758 33.6ZM184.534 42.12C183.926 42.128 183.398 42.032 182.95 41.832C182.502 41.632 182.074 41.332 181.666 40.932C181.626 40.9 181.59 40.86 181.558 40.812C181.534 40.764 181.522 40.708 181.522 40.644C181.522 40.548 181.558 40.46 181.63 40.38C181.71 40.3 181.798 40.26 181.894 40.26C181.99 40.26 182.078 40.3 182.158 40.38C182.47 40.716 182.822 40.972 183.214 41.148C183.614 41.324 184.042 41.412 184.498 41.412C184.882 41.412 185.222 41.352 185.518 41.232C185.822 41.112 186.062 40.94 186.238 40.716C186.414 40.492 186.502 40.232 186.502 39.936C186.502 39.568 186.402 39.272 186.202 39.048C186.002 38.816 185.738 38.628 185.41 38.484C185.082 38.332 184.718 38.196 184.318 38.076C183.99 37.98 183.678 37.872 183.382 37.752C183.086 37.624 182.822 37.472 182.59 37.296C182.358 37.112 182.178 36.888 182.05 36.624C181.922 36.36 181.858 36.04 181.858 35.664C181.858 35.24 181.97 34.864 182.194 34.536C182.418 34.208 182.734 33.952 183.142 33.768C183.558 33.576 184.038 33.48 184.582 33.48C185.054 33.48 185.506 33.56 185.938 33.72C186.378 33.88 186.726 34.116 186.982 34.428C187.102 34.556 187.162 34.672 187.162 34.776C187.162 34.856 187.122 34.936 187.042 35.016C186.962 35.096 186.874 35.136 186.778 35.136C186.698 35.136 186.63 35.108 186.574 35.052C186.438 34.884 186.266 34.736 186.058 34.608C185.85 34.472 185.618 34.368 185.362 34.296C185.114 34.224 184.854 34.188 184.582 34.188C184.206 34.188 183.866 34.248 183.562 34.368C183.266 34.48 183.03 34.644 182.854 34.86C182.686 35.076 182.602 35.336 182.602 35.64C182.602 35.976 182.698 36.252 182.89 36.468C183.082 36.684 183.334 36.864 183.646 37.008C183.958 37.144 184.29 37.272 184.642 37.392C184.986 37.488 185.314 37.6 185.626 37.728C185.946 37.848 186.226 38 186.466 38.184C186.714 38.368 186.906 38.6 187.042 38.88C187.186 39.16 187.258 39.512 187.258 39.936C187.258 40.344 187.142 40.712 186.91 41.04C186.678 41.368 186.358 41.628 185.95 41.82C185.55 42.012 185.078 42.112 184.534 42.12Z" fill="#6C3434"/>
<defs>
<linearGradient id="paint0_linear_4_3" x1="99" y1="0" x2="99" y2="30" gradientUnits="userSpaceOnUse">
<stop offset="0.466667" stop-color="#F3F5FD"/>
<stop offset="1" stop-color="#A9ACB8" stop-opacity="0"/>
</linearGradient>
</defs>
</svg>
